<svg width="40" height="40" viewBox="0 0 40 40" fill="none" xmlns="http://www.w3.org/2000/svg">
<rect width="40" height="40" fill="#FF6800"/>
<path d="M10 34.9999H5.00004C4.55801 34.9999 4.13409 34.8243 3.82153 34.5118C3.50897 34.1992 3.33337 33.7753 3.33337 33.3333V19.9999C3.33337 19.5579 3.50897 19.134 3.82153 18.8214C4.13409 18.5088 4.55801 18.3333 5.00004 18.3333H10C10.4421 18.3333 10.866 18.5088 11.1786 18.8214C11.4911 19.134 11.6667 19.5579 11.6667 19.9999V33.3333C11.6667 33.7753 11.4911 34.1992 11.1786 34.5118C10.866 34.8243 10.4421 34.9999 10 34.9999ZM21.6667 34.9999H16.6667C16.2247 34.9999 15.8008 34.8243 15.4882 34.5118C15.1756 34.1992 15 33.7753 15 33.3333V4.99992C15 4.55789 15.1756 4.13397 15.4882 3.82141C15.8008 3.50885 16.2247 3.33325 16.6667 3.33325H21.6667C22.1087 3.33325 22.5327 3.50885 22.8452 3.82141C23.1578 4.13397 23.3334 4.55789 23.3334 4.99992V33.3333C23.3334 33.7753 23.1578 34.1992 22.8452 34.5118C22.5327 34.8243 22.1087 34.9999 21.6667 34.9999ZM33.3334 34.9999H28.3334C27.8913 34.9999 27.4674 34.8243 27.1549 34.5118C26.8423 34.1992 26.6667 33.7753 26.6667 33.3333V14.9999C26.6667 14.5579 26.8423 14.134 27.1549 13.8214C27.4674 13.5088 27.8913 13.3333 28.3334 13.3333H33.3334C33.7754 13.3333 34.1993 13.5088 34.5119 13.8214C34.8244 14.134 35 14.5579 35 14.9999V33.3333C35 33.7753 34.8244 34.1992 34.5119 34.5118C34.1993 34.8243 33.7754 34.9999 33.3334 34.9999Z" fill="white"/>
</svg>
