<svg width="24" height="24" viewBox="0 0 24 24" fill="none" xmlns="http://www.w3.org/2000/svg">
<path fill-rule="evenodd" clip-rule="evenodd" d="M11.9999 9.78671e-08C5.38329 9.78671e-08 -9.52855e-08 5.38191 -9.52855e-08 12C-9.52855e-08 18.6167 5.38329 23.9993 11.9999 23.9993C18.6166 23.9993 24 18.6167 24 12C24 5.38191 18.6166 9.78671e-08 11.9999 9.78671e-08ZM18.6899 7.99802L11.3053 16.3057C11.1235 16.5096 10.8701 16.6148 10.6148 16.6148C10.4123 16.6148 10.2088 16.5483 10.0385 16.4135L5.42298 12.7206C5.02512 12.4025 4.96059 11.8212 5.27904 11.4225C5.5971 11.0251 6.17855 10.96 6.5764 11.2787L10.5073 14.4232L17.3099 6.77093C17.6478 6.389 18.2321 6.3548 18.6129 6.69417C18.9941 7.03288 19.0287 7.6161 18.6899 7.99802Z" fill="#4C40F7"/>
</svg>
