<svg width="1440" height="1543" viewBox="0 0 1440 1543" fill="none" xmlns="http://www.w3.org/2000/svg">
<path fill-rule="evenodd" clip-rule="evenodd" d="M178.573 104.02C360.096 122.963 524.477 186.903 667.114 300.684C833.083 433.076 1004.07 579.249 1037.12 788.875C1074.7 1027.25 1035.2 1304.99 849.838 1459.66C670.878 1608.98 411.59 1512.95 178.573 1505.25C-41.1755 1497.99 -297.125 1574.9 -449.71 1416.71C-601.551 1259.29 -517.009 1007.47 -512.423 788.875C-508 578.059 -573.728 335.316 -423.908 186.827C-274.283 38.5322 -31.0257 82.1463 178.573 104.02Z" fill="#FE9602"/>
<path d="M1731.25 17.5843C1731.25 17.5843 1323.03 -59.5903 1059.79 343.376C938.133 529.619 918.159 647.362 938.642 834.037C969.359 1114.02 1019.13 1179.1 1242 1084.9C1361.58 1034.36 1488.42 975.41 1488.42 975.41C1558.96 941.127 1764.15 872.883 1799.73 876.534C1835.31 880.185 1803.51 13.8948 1731.25 17.5843Z" fill="#FF3B2F"/>
</svg>
